<?xml version="1.0" encoding="utf-8"?>
<!-- Generator: Adobe Illustrator 23.0.1, SVG Export Plug-In . SVG Version: 6.00 Build 0)  -->
<svg version="1.1" id="Ebene_1" xmlns="http://www.w3.org/2000/svg" xmlns:xlink="http://www.w3.org/1999/xlink" x="0px" y="0px"
	 viewBox="0 0 215.1 132.8" style="enable-background:new 0 0 215.1 132.8;" xml:space="preserve">
<style type="text/css">
	.st0{fill:#888B8D;}
	.st1{fill:#00833E;}
	.st2{fill:#E1251B;}
</style>
<path class="st0" d="M0,128.2l3-3.5c2.7,2.3,5.4,3.6,8.9,3.6c3,0,5-1.4,5-3.5v-0.1c0-2-1.1-3.1-6.3-4.3c-6-1.4-9.3-3.2-9.3-8.4V112
	c0-4.8,4-8.1,9.6-8.1c4.1,0,7.3,1.2,10.2,3.5l-2.6,3.7c-2.5-1.9-5.1-2.9-7.6-2.9c-2.9,0-4.6,1.5-4.6,3.3v0.1c0,2.2,1.3,3.1,6.7,4.4
	c5.9,1.4,9,3.6,9,8.2v0.1c0,5.3-4.1,8.4-10,8.4C7.4,132.7,3.4,131.2,0,128.2z M30.4,104.2h20.8v4.4H35.3v7.3h14.1v4.4H35.3v7.5h16.1
	v4.4h-21V104.2z M58.3,118.3L58.3,118.3c0-7.9,6-14.6,14.5-14.6c4.9,0,7.9,1.4,10.8,3.8l-3.1,3.7c-2.2-1.8-4.3-3-7.9-3
	c-5.2,0-9.1,4.5-9.1,9.9v0.1c0,5.8,3.8,10,9.5,10c2.6,0,5.1-0.8,6.8-2.1v-5.3h-7.2v-4.3h12v11.8c-2.8,2.4-6.7,4.4-11.7,4.4
	C64.1,132.8,58.3,126.5,58.3,118.3z M93.6,120.4v-16.2h4.9v16c0,5.2,2.7,8,7.1,8c4.4,0,7.1-2.6,7.1-7.8v-16.2h4.9v15.9
	c0,8.4-4.7,12.6-12.1,12.6C98.2,132.7,93.6,128.5,93.6,120.4z M127.5,104.2H140c3.5,0,6.3,1,8.1,2.8c1.5,1.5,2.3,3.6,2.3,6.1v0.1
	c0,4.6-2.8,7.4-6.7,8.5l7.6,10.6h-5.9l-6.9-9.8h-6.2v9.8h-4.9V104.2z M139.7,118.1c3.5,0,5.8-1.8,5.8-4.7v-0.1c0-3-2.2-4.7-5.8-4.7
	h-7.2v9.4H139.7z M157.6,118.3L157.6,118.3c0-8,6.1-14.6,14.7-14.6c8.6,0,14.6,6.5,14.6,14.4v0.1c0,7.9-6.1,14.5-14.7,14.5
	S157.6,126.2,157.6,118.3z M181.8,118.3L181.8,118.3c0-5.5-4-10.1-9.5-10.1c-5.6,0-9.5,4.5-9.5,9.9v0.1c0,5.5,4,9.9,9.5,9.9
	C177.9,128.2,181.8,123.8,181.8,118.3z M193.3,128.2l3-3.5c2.7,2.3,5.4,3.6,8.9,3.6c3,0,5-1.4,5-3.5v-0.1c0-2-1.1-3.1-6.3-4.3
	c-6-1.4-9.3-3.2-9.3-8.4V112c0-4.8,4-8.1,9.6-8.1c4.1,0,7.3,1.2,10.2,3.5l-2.6,3.7c-2.5-1.9-5.1-2.9-7.6-2.9c-2.9,0-4.6,1.5-4.6,3.3
	v0.1c0,2.2,1.3,3.1,6.7,4.4c5.9,1.4,9,3.6,9,8.2v0.1c0,5.3-4.1,8.4-10,8.4C200.8,132.7,196.7,131.2,193.3,128.2z"/>
<path class="st1" d="M96.4,85H128c34.4,0,51.6-17.9,51.6-43v-0.2C179.6,16.6,162.7,0,129,0H96.4V85z M124.8,61.8V23.3h4.7
	c13,0,21.4,5.8,21.4,19.1v0.3c0,13.3-8.4,19.1-21.4,19.1H124.8z"/>
<path id="path34_6_" class="st1" d="M186.7,85h28.3V0h-28.3V85z"/>
<path id="path34_5_" class="st2" d="M28.4,56.7h28.3V28.3H28.4V56.7z"/>
<path id="path34_4_" class="st1" d="M56.7,85h28.3V0H56.7V85z"/>
<path id="path34_2_" class="st1" d="M0,85h28.3V0H0V85z"/>
</svg>
